<?xml version="1.0" standalone="no"?><!DOCTYPE svg PUBLIC "-//W3C//DTD SVG 1.1//EN" "http://www.w3.org/Graphics/SVG/1.1/DTD/svg11.dtd"><svg class="icon" width="200px" height="200.00px" viewBox="0 0 1024 1024" version="1.1" xmlns="http://www.w3.org/2000/svg"><path d="M881.720889 842.752c0 68.494222-50.915556 124.074667-113.777778 124.074667-62.748444 0-113.607111-55.409778-113.777778-123.790223l-0.056889-661.845333 0.056889-0.284444c0-68.494222 50.972444-124.074667 113.777778-124.074667 62.862222 0 113.777778 55.580444 113.777778 124.074667l-0.056889 2.958222v655.928889l0.056889 2.958222z m-455.111111 0c0 68.494222-50.858667 124.074667-113.720889 124.074667-62.748444 0-113.664-55.409778-113.777778-123.790223h-0.113778V181.191111H199.111111V180.906667c0-68.494222 50.915556-124.074667 113.777778-124.074667s113.777778 55.580444 113.777778 124.074667V842.752z" fill="#666666" /></svg>